<svg width="339" height="142" fill="none" xmlns="http://www.w3.org/2000/svg"><path d="M239.182 111.049v-13.68l60.352-95.491h9.925v21.19h-6.706l-45.6 72.155v1.073h81.275v14.753h-99.246zm64.644 28.165V1.878h15.826v137.336h-15.826zm-134.655 1.877c-10.103 0-18.709-2.749-25.817-8.248-7.108-5.544-12.54-13.568-16.295-24.074-3.756-10.55-5.633-23.292-5.633-38.223 0-14.843 1.877-27.517 5.633-38.023 3.8-10.55 9.254-18.597 16.362-24.14C150.574 2.793 159.157 0 169.171 0c10.015 0 18.576 2.794 25.684 8.382 7.153 5.544 12.607 13.59 16.362 24.141 3.8 10.506 5.7 23.18 5.7 38.023 0 14.931-1.877 27.672-5.633 38.223-3.755 10.506-9.187 18.53-16.295 24.074-7.108 5.499-15.714 8.248-25.818 8.248zm0-14.753c10.015 0 17.793-4.828 23.337-14.484 5.543-9.657 8.315-23.426 8.315-41.308 0-11.892-1.274-22.018-3.822-30.378-2.504-8.36-6.125-14.73-10.864-19.112-4.694-4.38-10.349-6.571-16.966-6.571-9.924 0-17.681 4.895-23.269 14.686-5.588 9.745-8.382 23.537-8.382 41.375 0 11.891 1.252 21.995 3.755 30.31 2.504 8.315 6.102 14.641 10.797 18.978 4.738 4.336 10.438 6.504 17.099 6.504zM0 111.049v-13.68L60.353 1.878h9.924v21.19h-6.706l-45.6 72.155v1.073h81.276v14.753H0zm64.644 28.165V1.878H80.47v137.336H64.644z" fill="#000"/></svg>