<svg width="24" height="24" fill="none" xmlns="http://www.w3.org/2000/svg"><path d="M20 15.728v2.559a1.704 1.704 0 01-1.162 1.623 1.712 1.712 0 01-.702.083 16.938 16.938 0 01-7.376-2.619 16.652 16.652 0 01-5.129-5.118A16.86 16.86 0 013.007 4.86a1.703 1.703 0 011.012-1.714C4.236 3.05 4.47 3 4.708 3h2.564a1.712 1.712 0 011.71 1.467c.108.82.309 1.623.598 2.397a1.703 1.703 0 01-.385 1.8L8.11 9.748a13.662 13.662 0 005.128 5.118l1.086-1.083a1.71 1.71 0 011.803-.384c.776.289 1.582.489 2.402.597A1.71 1.71 0 0120 15.728z" stroke="#3F86F9" stroke-width="2" stroke-linecap="round" stroke-linejoin="round"/></svg>