<svg width="114" height="39" fill="none" xmlns="http://www.w3.org/2000/svg"><path d="M5.064 15.976c-.12 1.752-.408 3.264-1.128 4.272h8.352V6.544h-6.72c-.096 2.184-.264 6.12-.504 9.432zM2.088 22l-.12 3.12H.24v-4.872h1.08c1.224-.384 1.608-1.92 1.872-4.44C3.6 11.056 3.72 4.84 3.72 4.84h10.608v15.408h1.92v4.872H14.52L14.4 22H2.088zm16.806 0V4.84h10.008v1.704h-7.92v5.832h6.384v1.704h-6.384v6.216h8.352V22h-10.44zm17.026-6.024c-.192 3.264-1.056 6.216-4.056 6.216-.648 0-.936-.192-.936-.192v-2.016s.288.096.936.096c1.368 0 1.872-1.416 2.112-4.272.36-4.752.408-10.968.408-10.968h10.32V22h-2.088V6.592h-6.312c-.048 2.208-.168 6.096-.384 9.384zm20.291 6.24c-4.968 0-8.016-3.408-8.016-8.688v-.192c0-5.088 3.408-8.76 8.064-8.76 3.576 0 6.6 1.896 6.96 5.616h-2.064c-.432-2.616-1.944-3.96-4.872-3.96-3.552 0-5.928 2.76-5.928 7.08v.192c0 4.368 2.208 7.008 5.904 7.008 2.808 0 4.752-1.416 5.184-4.2h1.944c-.6 3.96-3.336 5.904-7.176 5.904zM66.566 22V4.84h2.088v7.776h9.024V4.84h2.088V22h-2.088v-7.632h-9.024V22h-2.088zM89.978 6.568L87 15.4h5.953l-2.976-8.832zM82.802 22l5.903-17.16h2.737L97.25 22h-2.064l-1.68-4.944h-7.08L84.769 22h-1.968zm28.987-4.944c0 3.24-2.208 4.944-5.64 4.944h-5.88V4.84h10.128v1.704h-8.088v5.544h3.816c3.456 0 5.664 1.44 5.664 4.872v.096zm-9.48 3.312h3.792c2.496 0 3.648-1.224 3.648-3.312v-.096c0-2.112-1.176-3.24-3.84-3.24h-3.6v6.648z" fill="#3F86F9"/><path opacity=".8" d="M.228 36v-.24l3.408-3.588c.78-.828 1.236-1.608 1.236-2.484 0-.96-.564-1.536-1.536-1.536-.996 0-1.644.564-1.812 1.908H.552c.132-1.68 1.152-2.748 2.784-2.748 1.584 0 2.592.936 2.592 2.412 0 1.056-.672 2.088-1.728 3.12l-2.364 2.304h4.14V36H.228zm10.486.108c-2.052 0-3.408-1.656-3.408-4.152v-.48c0-2.532 1.284-4.164 3.384-4.164 2.112 0 3.348 1.692 3.348 4.14v.48c0 2.496-1.212 4.176-3.324 4.176zm0-.864c1.5 0 2.268-1.152 2.268-3.324v-.48c0-1.992-.84-3.288-2.292-3.288s-2.316 1.2-2.316 3.312v.48c0 2.172.912 3.3 2.34 3.3zm10.012-2.256c-.096 1.632-.528 3.108-2.028 3.108-.324 0-.468-.096-.468-.096v-1.008s.144.048.468.048c.684 0 .936-.708 1.056-2.136.18-2.376.204-5.484.204-5.484h5.16V36h-1.044v-7.704h-3.156a117.961 117.961 0 01-.192 4.692zM27.283 36v-8.58h5.004v.852h-3.96v2.916h3.192v.852h-3.192v3.108h4.176V36h-5.22zm8.561 0v-7.728h-2.496v-.852h6.036v.852h-2.496V36h-1.044zm8.138 0v-8.58h1.044v3.888h4.512V27.42h1.044V36h-1.044v-3.816h-4.512V36h-1.044zm11.706-7.716L54.2 32.7h2.976l-1.488-4.416zM52.1 36l2.952-8.58h1.368L59.324 36h-1.032l-.84-2.472h-3.54L53.084 36H52.1zm11.91 0v-8.58h2.436c1.644 0 3 .72 3 2.508v.048c0 1.824-1.368 2.532-3 2.532h-1.392V36H64.01zm1.044-4.32h1.464c1.224 0 1.884-.6 1.884-1.704v-.048c0-1.212-.72-1.668-1.884-1.668h-1.464v3.42zm13.428-4.26V36h-1.044v-8.58h1.044zm-7.5 8.58v-8.58h1.044v3.492h1.332c1.632 0 3 .66 3 2.484v.048c0 1.788-1.356 2.556-3 2.556h-2.376zm1.044-.84h1.404c1.164 0 1.884-.504 1.884-1.716v-.048c0-1.104-.66-1.656-1.884-1.656h-1.404v3.42zm8.613.84v-8.58h1.044v3.888h4.512V27.42h1.044V36h-1.044v-3.816h-4.512V36h-1.044zm8.765 0v-8.58h1.044v4.128l3.732-4.14h1.164l-3.816 4.176L95.536 36h-1.26l-3.828-4.188V36h-1.044zm7.395 0v-8.58h5.004v.852h-3.96v2.916h3.192v.852h-3.192v3.108h4.176V36h-5.22z" fill="#3F86F9"/></svg>