<svg width="91" height="30" fill="none" xmlns="http://www.w3.org/2000/svg"><path d="M4.042 13.191c-.095 1.399-.325 2.606-.9 3.41h6.667V5.663H4.445c-.077 1.744-.211 4.886-.403 7.53zM1.667 18l-.096 2.49H.191v-3.888h.863c.977-.307 1.283-1.533 1.494-3.545.326-3.793.421-8.755.421-8.755h8.468v12.3h1.533v3.889h-1.38L11.495 18H1.667zm13.415 0V4.302h7.99v1.36h-6.323v4.656h5.096v1.36H16.75v4.962h6.667V18h-8.334zm13.591-4.809c-.153 2.606-.843 4.962-3.238 4.962-.517 0-.747-.153-.747-.153v-1.61s.23.077.747.077c1.092 0 1.495-1.13 1.686-3.41.288-3.793.326-8.755.326-8.755h8.238V18h-1.667V5.7H28.98c-.039 1.763-.134 4.867-.307 7.491zm16.197 4.981c-3.965 0-6.398-2.72-6.398-6.935v-.153c0-4.061 2.72-6.993 6.436-6.993 2.855 0 5.269 1.514 5.556 4.483h-1.647c-.345-2.088-1.552-3.16-3.89-3.16-2.835 0-4.731 2.202-4.731 5.65v.154c0 3.487 1.762 5.594 4.712 5.594 2.242 0 3.794-1.13 4.139-3.352h1.551c-.478 3.16-2.663 4.712-5.728 4.712zM53.136 18V4.302h1.667v6.207h7.203V4.302h1.667V18h-1.667v-6.092h-7.203V18h-1.667zM71.824 5.681l-2.375 7.05h4.75l-2.375-7.05zM66.096 18l4.713-13.698h2.184L77.629 18h-1.648l-1.34-3.947h-5.652L67.667 18h-1.571zm23.14-3.947c0 2.587-1.763 3.947-4.503 3.947H80.04V4.302h8.084v1.36h-6.456v4.426h3.046c2.759 0 4.521 1.15 4.521 3.889v.076zm-7.568 2.644h3.027c1.992 0 2.912-.977 2.912-2.643v-.077c0-1.686-.939-2.587-3.065-2.587h-2.874v5.307z" fill="#fff"/><path opacity=".8" d="M.182 28.34v-.192l2.72-2.864c.623-.66.987-1.283.987-1.983 0-.766-.45-1.226-1.226-1.226-.795 0-1.312.45-1.446 1.523H.44c.105-1.34.92-2.193 2.222-2.193 1.264 0 2.069.747 2.069 1.925 0 .843-.536 1.667-1.38 2.49l-1.886 1.84H4.77v.68H.182zm8.37.086c-1.638 0-2.72-1.322-2.72-3.314v-.383c0-2.022 1.025-3.324 2.701-3.324 1.686 0 2.673 1.35 2.673 3.304v.384c0 1.992-.968 3.333-2.654 3.333zm0-.69c1.198 0 1.81-.92 1.81-2.653V24.7c0-1.59-.67-2.625-1.829-2.625-1.159 0-1.849.958-1.849 2.644v.383c0 1.734.728 2.634 1.868 2.634zm7.992-1.8c-.076 1.302-.421 2.48-1.619 2.48-.258 0-.373-.076-.373-.076v-.805s.115.038.373.038c.546 0 .747-.565.843-1.704.144-1.897.163-4.378.163-4.378h4.12v6.849h-.834v-6.15h-2.52a94.185 94.185 0 01-.153 3.745zm5.235 2.404v-6.85h3.994v.681h-3.161v2.328h2.548v.68h-2.548v2.48h3.334v.68h-4.167zm6.833 0v-6.17H26.62v-.68h4.818v.68h-1.992v6.169h-.834zm6.497 0v-6.85h.833v3.105h3.602V21.49h.833v6.849h-.833v-3.046h-3.602v3.046h-.833zm9.344-6.16l-1.188 3.526h2.376l-1.188-3.525zm-2.864 6.16l2.356-6.85h1.092l2.318 6.85h-.824l-.67-1.973h-2.826l-.661 1.973h-.785zm9.507 0v-6.85h1.944c1.312 0 2.395.576 2.395 2.003v.038c0 1.456-1.092 2.021-2.395 2.021h-1.111v2.788h-.834zm.833-3.449h1.168c.977 0 1.504-.478 1.504-1.36v-.038c0-.968-.574-1.332-1.504-1.332H51.93v2.73zm10.72-3.4v6.849h-.834v-6.85h.833zM56.66 28.34v-6.85h.834v2.788h1.063c1.303 0 2.395.527 2.395 1.983v.038c0 1.428-1.083 2.04-2.395 2.04H56.66zm.834-.67h1.12c.93 0 1.504-.403 1.504-1.37v-.039c0-.881-.526-1.322-1.504-1.322h-1.12v2.73zm6.874.67v-6.85h.834v3.105h3.602V21.49h.833v6.849h-.834v-3.046h-3.601v3.046h-.834zm6.998 0v-6.85h.833v3.296l2.979-3.305h.93l-3.047 3.334 3.2 3.525h-1.006L72.2 24.997v3.343h-.834zm5.902 0v-6.85h3.995v.681h-3.161v2.328h2.548v.68h-2.548v2.48h3.333v.68h-4.167z" fill="#fff"/></svg>