<svg width="38" height="48" fill="none" xmlns="http://www.w3.org/2000/svg"><path d="M11.586 16.27l-.004.001-.007.005.011-.007zm20.891-.395a2.594 2.594 0 00-.482-.37 2.091 2.091 0 00-2.939.867 12.19 12.19 0 01-2.934 3.752 18.457 18.457 0 00-2.19-12.436A18.336 18.336 0 0017.17.942a2.09 2.09 0 00-2.805.697 2.117 2.117 0 00-.327 1.004c-.117 2-.637 3.955-1.529 5.747a14.792 14.792 0 01-3.657 4.679l-.482.394a17.903 17.903 0 00-4.173 3.93 18.995 18.995 0 00-3.684 7.89 19.047 19.047 0 00.217 8.711 18.982 18.982 0 004.073 7.693 18.855 18.855 0 007.067 5.048 2.089 2.089 0 002.644-.962 2.118 2.118 0 00.141-1.65 14.793 14.793 0 01-.398-5.445 18.937 18.937 0 009.052 8.473 2.082 2.082 0 001.5.08 18.868 18.868 0 008.016-5.127 19.007 19.007 0 004.517-8.402 19.071 19.071 0 00-.126-9.55 19 19 0 00-4.738-8.277zm-8.195 27.069a14.63 14.63 0 01-4.737-3.84 14.72 14.72 0 01-2.77-5.447c-.164-.67-.29-1.35-.379-2.034a2.114 2.114 0 00-.554-1.161 2.096 2.096 0 00-1.523-.66 2.09 2.09 0 00-1.82 1.056A18.978 18.978 0 009.97 40.81a14.715 14.715 0 01-3.766-4.385 14.79 14.79 0 01-1.338-11.281 14.765 14.765 0 012.636-5.152 13.788 13.788 0 013.278-3.076 1.78 1.78 0 00.158-.116s.62-.517.642-.528A18.933 18.933 0 0017.666 6.5a14.232 14.232 0 014.337 8.035 14.276 14.276 0 01-1.43 9.028 2.119 2.119 0 00.249 2.33 2.098 2.098 0 002.236.662 16.488 16.488 0 008.105-5.671 14.842 14.842 0 011.854 12.7 14.784 14.784 0 01-3.303 5.684 14.687 14.687 0 01-5.432 3.677z" fill="#000"/></svg>