<svg width="44" height="46" fill="none" xmlns="http://www.w3.org/2000/svg"><path d="M43.513 42.983L31.558 10.109l2.13-5.859h2.438a1.875 1.875 0 100-3.75h-22.5a1.875 1.875 0 100 3.75h1.073L.613 42.983a1.875 1.875 0 103.525 1.282L6.416 38h11.016l-1.814 4.983a1.874 1.874 0 103.52 1.282l4.332-11.89h12.187l4.324 11.89a1.875 1.875 0 002.41 1.123 1.875 1.875 0 001.122-2.405zM22.888 23H11.873l2.726-7.5h11.015L22.888 23zm6.818-18.75l-2.735 7.5H15.97l2.718-7.5h11.018zm-21.925 30l2.728-7.5h11.015l-2.742 7.5H7.78zm17.043-5.625l4.74-13.029L34.3 28.625h-9.476z" fill="#000"/></svg>